<mxfile host="Electron" modified="2023-10-21T18:20:20.673Z" agent="Mozilla/5.0 (X11; Linux x86_64) AppleWebKit/537.36 (KHTML, like Gecko) draw.io/22.0.3 Chrome/114.0.5735.289 Electron/25.8.4 Safari/537.36" etag="s0avLQbiIBbS2Quazi0G" version="22.0.3" type="device">
  <diagram name="Page-1" id="DePHZawBamI79uTRQYGj">
    <mxGraphModel dx="584" dy="846" grid="1" gridSize="10" guides="1" tooltips="1" connect="1" arrows="0" fold="1" page="1" pageScale="1" pageWidth="850" pageHeight="1100" math="0" shadow="0">
      <root>
        <mxCell id="0" />
        <mxCell id="1" parent="0" />
        <mxCell id="D2OiGPXfpZJZtqMRn9hN-1" value="" style="rounded=0;whiteSpace=wrap;html=1;fontSize=20;" parent="1" vertex="1">
          <mxGeometry x="850" width="1280" height="720" as="geometry" />
        </mxCell>
        <mxCell id="D2OiGPXfpZJZtqMRn9hN-2" value="MENÜSÁV" style="rounded=1;whiteSpace=wrap;html=1;fontSize=20;" parent="1" vertex="1">
          <mxGeometry x="1090" y="30" width="1000" height="60" as="geometry" />
        </mxCell>
        <mxCell id="D2OiGPXfpZJZtqMRn9hN-3" value="LÁBJEGYZET" style="rounded=1;whiteSpace=wrap;html=1;fontSize=20;" parent="1" vertex="1">
          <mxGeometry x="890" y="620" width="1200" height="60" as="geometry" />
        </mxCell>
        <mxCell id="D2OiGPXfpZJZtqMRn9hN-4" value="LOGÓ ÉS CÉGNÉV" style="rounded=1;whiteSpace=wrap;html=1;fontSize=20;" parent="1" vertex="1">
          <mxGeometry x="890" y="30" width="200" height="60" as="geometry" />
        </mxCell>
        <mxCell id="D2OiGPXfpZJZtqMRn9hN-5" value="" style="rounded=0;whiteSpace=wrap;html=1;fontSize=20;" parent="1" vertex="1">
          <mxGeometry x="890" y="90" width="1200" height="530" as="geometry" />
        </mxCell>
        <mxCell id="ASaQUbdj0bfqz2aTXx7I-6" value="Bejelentkezés" style="rounded=1;whiteSpace=wrap;html=1;fontSize=20;" parent="1" vertex="1">
          <mxGeometry x="1360" y="440" width="260" height="60" as="geometry" />
        </mxCell>
        <mxCell id="ASaQUbdj0bfqz2aTXx7I-7" value="FELHASZNÁLÓ NÉV" style="rounded=1;whiteSpace=wrap;html=1;" parent="1" vertex="1">
          <mxGeometry x="1262.5" y="320" width="455" height="40" as="geometry" />
        </mxCell>
        <mxCell id="ASaQUbdj0bfqz2aTXx7I-8" value="" style="shape=actor;whiteSpace=wrap;html=1;" parent="1" vertex="1">
          <mxGeometry x="1415" y="100" width="150" height="190" as="geometry" />
        </mxCell>
        <mxCell id="ASaQUbdj0bfqz2aTXx7I-9" value="JELSZÓ" style="rounded=1;whiteSpace=wrap;html=1;" parent="1" vertex="1">
          <mxGeometry x="1262.5" y="380" width="455" height="40" as="geometry" />
        </mxCell>
      </root>
    </mxGraphModel>
  </diagram>
</mxfile>
